<svg width="39" height="37" viewBox="0 0 39 37" fill="none" xmlns="http://www.w3.org/2000/svg">
<path d="M16.8855 1.59956C18.1753 0.596662 19.9491 0.533982 21.2994 1.41151L21.5636 1.59956L37.5346 14.0175C38.9094 15.0866 38.2396 17.2393 36.5851 17.4169L36.3638 17.4286H34.4645V32.6637C34.4645 34.6717 32.9101 36.3166 30.9388 36.462L30.6545 36.4725H7.79465C5.78611 36.4725 4.14058 34.9188 3.99513 32.948L3.98468 32.6637V17.4286H2.08526C0.345313 17.4286 -0.451215 15.3193 0.746868 14.1627L0.914537 14.0175L16.8855 1.59956ZM19.2246 4.60603L7.08106 14.048C7.51641 14.4007 7.79465 14.9395 7.79465 15.5432V32.6637H13.5096V23.1417C13.5096 19.9864 16.0683 17.4286 19.2246 17.4286C22.3808 17.4286 24.9396 19.9864 24.9396 23.1417V32.6637H30.6545V15.5432C30.6545 14.9394 30.9327 14.4007 31.3679 14.048L19.2246 4.60603ZM19.2246 21.2374C18.1725 21.2374 17.3197 22.0899 17.3197 23.1417V32.6637H21.1296V23.1417C21.1296 22.0899 20.2766 21.2374 19.2246 21.2374Z" fill="#0066CC"/>
</svg>
