<?xml version="1.0" encoding="iso-8859-1"?>
<!-- Uploaded to: SVG Repo, www.svgrepo.com, Generator: SVG Repo Mixer Tools -->
<!DOCTYPE svg PUBLIC "-//W3C//DTD SVG 1.1//EN" "http://www.w3.org/Graphics/SVG/1.1/DTD/svg11.dtd">
<svg fill="#000000" version="1.1" id="Capa_1" xmlns="http://www.w3.org/2000/svg" xmlns:xlink="http://www.w3.org/1999/xlink" 
	 width="800px" height="800px" viewBox="0 0 612 612" xml:space="preserve">
<g>
	<g>
		<path d="M468.562,229.5v-153h42.232L540.281,0H71.719l29.486,76.5h42.233v153c0,5.828,2.654,11.279,7.172,14.941L271.422,306
			l-120.812,61.559c-4.518,3.624-7.172,9.113-7.172,14.941v153h-42.233L71.719,612h468.562l-29.486-76.5h-42.232v-153
			c0-5.828-2.615-11.317-7.172-14.941L346.641,306l114.75-61.559C465.947,240.779,468.562,235.328,468.562,229.5z M430.312,391.689
			v61.73h-9.409l-114.506-58.168L191.159,453.42h-9.472v-61.73l127.21-68.037L430.312,391.689z M430.312,220.311l-121.415,68.037
			l-127.21-68.037V76.5h248.625V220.311z"/>
		<polygon points="306.397,223.126 382.896,176.906 382.896,130.686 229.5,130.686 229.5,176.906 229.897,176.906 		"/>
	</g>
</g>
</svg>