<svg width="151" height="151" viewBox="0 0 151 151" fill="none" xmlns="http://www.w3.org/2000/svg">
<path d="M147.21 73.4033C148.875 73.3445 150.183 71.9456 150.058 70.284C148.67 51.9386 140.577 34.7013 127.265 21.8967C113.226 8.39346 94.483 0.879092 75.0012 0.943217C55.5194 1.00734 36.8266 8.64493 22.8769 22.2403C8.92728 35.8358 0.814871 54.3227 0.255786 73.7905C-0.303299 93.2583 6.73479 112.18 19.8812 126.553C33.0277 140.926 51.2514 149.623 70.6974 150.805C90.1434 151.986 109.287 145.559 124.077 132.883C138.103 120.863 147.171 104.119 149.61 85.883C149.831 84.2314 148.604 82.7596 146.945 82.6054C145.286 82.4513 143.823 83.6728 143.596 85.3236C141.307 101.999 132.986 117.303 120.15 128.303C106.549 139.96 88.9454 145.87 71.0635 144.783C53.1815 143.697 36.4236 135.699 24.3345 122.482C12.2455 109.265 5.77346 91.8656 6.28758 73.9636C6.8017 56.0616 14.2616 39.0616 27.0893 26.5597C39.9169 14.0578 57.1063 7.03455 75.0211 6.97559C92.9359 6.91662 110.171 13.8266 123.081 26.2438C135.264 37.9621 142.693 53.7179 144.022 70.4973C144.154 72.1585 145.544 73.462 147.21 73.4033Z" fill="white"/>
</svg>
