<svg width="39" height="9" viewBox="0 0 39 9" fill="none" xmlns="http://www.w3.org/2000/svg">
<path d="M4.40795 0.401733C2.07962 0.401733 0.174622 2.30673 0.174622 4.63507C0.174622 6.9634 2.07962 8.8684 4.40795 8.8684C6.73629 8.8684 8.64129 6.9634 8.64129 4.63507C8.64129 2.30673 6.73629 0.401733 4.40795 0.401733ZM19.2246 0.401733C16.8963 0.401733 14.9913 2.30673 14.9913 4.63507C14.9913 6.9634 16.8963 8.8684 19.2246 8.8684C21.553 8.8684 23.458 6.9634 23.458 4.63507C23.458 2.30673 21.553 0.401733 19.2246 0.401733ZM34.0413 0.401733C31.713 0.401733 29.808 2.30673 29.808 4.63507C29.808 6.9634 31.713 8.8684 34.0413 8.8684C36.3696 8.8684 38.2746 6.9634 38.2746 4.63507C38.2746 2.30673 36.3696 0.401733 34.0413 0.401733Z" fill="#0066CC"/>
</svg>
