<svg width="1382" height="77" viewBox="0 0 1382 77" fill="none" xmlns="http://www.w3.org/2000/svg">
<path d="M72.9705 37.1253C72.9705 57.2 56.6967 73.4737 36.6221 73.4737C16.5474 73.4737 0.273621 57.2 0.273621 37.1253C0.273621 17.0506 16.5474 0.776855 36.6221 0.776855C56.6967 0.776855 72.9705 17.0506 72.9705 37.1253ZM11.7545 37.1253C11.7545 50.8592 22.8881 61.9928 36.6221 61.9928C50.356 61.9928 61.4896 50.8592 61.4896 37.1253C61.4896 23.3913 50.356 12.2578 36.6221 12.2578C22.8881 12.2578 11.7545 23.3913 11.7545 37.1253Z" fill="#87CEEB"/>
<path d="M291.061 37.5506C291.061 57.6253 274.787 73.899 254.713 73.899C234.638 73.899 218.364 57.6253 218.364 37.5506C218.364 17.4759 234.638 1.20215 254.713 1.20215C274.787 1.20215 291.061 17.4759 291.061 37.5506ZM229.845 37.5506C229.845 51.2845 240.979 62.4181 254.713 62.4181C268.447 62.4181 279.58 51.2845 279.58 37.5506C279.58 23.8166 268.447 12.6831 254.713 12.6831C240.979 12.6831 229.845 23.8166 229.845 37.5506Z" fill="#87CEEB"/>
<path d="M509.152 37.9754C509.152 58.0501 492.878 74.3238 472.803 74.3238C452.729 74.3238 436.455 58.0501 436.455 37.9754C436.455 17.9007 452.729 1.62695 472.803 1.62695C492.878 1.62695 509.152 17.9007 509.152 37.9754ZM447.936 37.9754C447.936 51.7093 459.069 62.8429 472.803 62.8429C486.537 62.8429 497.671 51.7093 497.671 37.9754C497.671 24.2414 486.537 13.1079 472.803 13.1079C459.069 13.1079 447.936 24.2414 447.936 37.9754Z" fill="#87CEEB"/>
<path d="M727.242 38.4007C727.242 58.4754 710.968 74.7491 690.894 74.7491C670.819 74.7491 654.545 58.4754 654.545 38.4007C654.545 18.326 670.819 2.05225 690.894 2.05225C710.968 2.05225 727.242 18.326 727.242 38.4007ZM666.026 38.4007C666.026 52.1346 677.16 63.2682 690.894 63.2682C704.628 63.2682 715.761 52.1346 715.761 38.4007C715.761 24.6667 704.628 13.5332 690.894 13.5332C677.16 13.5332 666.026 24.6667 666.026 38.4007Z" fill="#87CEEB"/>
<path d="M945.333 38.826C945.333 58.9007 929.059 75.1744 908.984 75.1744C888.91 75.1744 872.636 58.9007 872.636 38.826C872.636 18.7513 888.91 2.47754 908.984 2.47754C929.059 2.47754 945.333 18.7513 945.333 38.826ZM884.117 38.826C884.117 52.5599 895.25 63.6935 908.984 63.6935C922.718 63.6935 933.852 52.5599 933.852 38.826C933.852 25.092 922.718 13.9585 908.984 13.9585C895.25 13.9585 884.117 25.092 884.117 38.826Z" fill="#87CEEB"/>
<path d="M1163.42 39.2513C1163.42 59.326 1147.15 75.5997 1127.07 75.5997C1107 75.5997 1090.73 59.326 1090.73 39.2513C1090.73 19.1766 1107 2.90283 1127.07 2.90283C1147.15 2.90283 1163.42 19.1766 1163.42 39.2513ZM1102.21 39.2513C1102.21 52.9852 1113.34 64.1188 1127.07 64.1188C1140.81 64.1188 1151.94 52.9852 1151.94 39.2513C1151.94 25.5173 1140.81 14.3838 1127.07 14.3838C1113.34 14.3838 1102.21 25.5173 1102.21 39.2513Z" fill="#87CEEB"/>
<path d="M1381.51 39.6766C1381.51 59.7513 1365.24 76.025 1345.16 76.025C1325.09 76.025 1308.82 59.7513 1308.82 39.6766C1308.82 19.6019 1325.09 3.32812 1345.16 3.32812C1365.24 3.32812 1381.51 19.6019 1381.51 39.6766ZM1320.3 39.6766C1320.3 53.4105 1331.43 64.5441 1345.16 64.5441C1358.9 64.5441 1370.03 53.4105 1370.03 39.6766C1370.03 25.9426 1358.9 14.809 1345.16 14.809C1331.43 14.809 1320.3 25.9426 1320.3 39.6766Z" fill="#87CEEB"/>
<rect x="61.4922" y="32.1252" width="168.352" height="10" fill="#87CEEB"/>
<rect x="279.585" y="32.5505" width="168.349" height="10" fill="#87CEEB"/>
<rect x="497.678" y="32.9758" width="168.349" height="10" fill="#87CEEB"/>
<rect x="715.771" y="33.4011" width="168.349" height="10" fill="#87CEEB"/>
<rect x="933.864" y="33.8264" width="168.349" height="10" fill="#87CEEB"/>
<rect x="1151.96" y="34.2517" width="168.349" height="10" fill="#87CEEB"/>
</svg>
