<svg width="39" height="39" viewBox="0 0 39 39" fill="none" xmlns="http://www.w3.org/2000/svg">
<path fill-rule="evenodd" clip-rule="evenodd" d="M26.8446 0.585083C27.3499 0.585083 27.8344 0.785788 28.1917 1.14304L37.7167 10.668C38.0739 11.0253 38.2746 11.5098 38.2746 12.0151V25.3501C38.2746 25.7957 38.1184 26.2273 37.8331 26.5696L28.3081 37.9996C27.9461 38.434 27.41 38.6851 26.8446 38.6851H11.6046C11.0994 38.6851 10.6148 38.4844 10.2576 38.1271L0.732583 28.6021C0.375326 28.2449 0.174622 27.7603 0.174622 27.2551V12.0151C0.174622 11.5098 0.375326 11.0253 0.732583 10.668L10.2576 1.14304C10.6148 0.785788 11.0994 0.585083 11.6046 0.585083H26.8446ZM26.0555 4.39508H12.3937L3.98462 12.8042V26.466L12.3937 34.8751H25.9524L34.4646 24.6604V12.8042L26.0555 4.39508ZM19.2246 27.2551C20.2767 27.2551 21.1296 28.108 21.1296 29.1601C21.1296 30.2122 20.2767 31.0651 19.2246 31.0651C18.1725 31.0651 17.3196 30.2122 17.3196 29.1601C17.3196 28.108 18.1725 27.2551 19.2246 27.2551ZM19.2246 8.20508C20.2767 8.20508 21.1296 9.05798 21.1296 10.1101V21.5401C21.1296 22.5922 20.2767 23.4451 19.2246 23.4451C18.1725 23.4451 17.3196 22.5922 17.3196 21.5401V10.1101C17.3196 9.05798 18.1725 8.20508 19.2246 8.20508Z" fill="#0066CC"/>
</svg>
