<svg width="42" height="42" viewBox="0 0 42 42" fill="none" xmlns="http://www.w3.org/2000/svg">
<path d="M37.5037 17.1714H32.8451C32.6104 16.372 32.2911 15.5999 31.8926 14.8681L35.1831 11.5777C36.2568 10.5039 36.2568 8.73749 35.1831 7.66376L34.1959 6.67663C33.1222 5.6029 31.3558 5.6029 30.282 6.67663L26.9916 9.96708C26.2598 9.56864 25.4877 9.24934 24.6883 9.01458V4.35599C24.6883 2.83199 23.4413 1.58508 21.9173 1.58508H20.5319C19.0079 1.58508 17.761 2.83199 17.761 4.35599V9.01458C16.947 9.25704 16.185 9.56876 15.4577 9.96708L12.1672 6.67663C11.0935 5.6029 9.32703 5.6029 8.2533 6.67663L7.26617 7.66376C6.19244 8.73749 6.19244 10.5039 7.26617 11.5777L10.5566 14.8681C10.1583 15.5955 9.84658 16.3575 9.60412 17.1714H4.94553C3.42153 17.1714 2.17462 18.4184 2.17462 19.9424V21.3278C2.17462 22.8518 3.42153 24.0987 4.94553 24.0987H9.60412C9.84658 24.9127 10.1583 25.6747 10.5566 26.402L7.26617 29.6925C6.19244 30.7662 6.19244 32.5327 7.26617 33.6064L8.2533 34.5935C9.32703 35.6673 11.0935 35.6673 12.1672 34.5935L15.4577 31.3031C16.185 31.7014 16.947 32.0131 17.761 32.2556V36.9142C17.761 38.4382 19.0079 39.6851 20.5319 39.6851H21.9173C23.4413 39.6851 24.6883 38.4382 24.6883 36.9142V32.2556C25.5022 32.0131 26.2642 31.7014 26.9916 31.3031L30.282 34.5935C31.3558 35.6673 33.1222 35.6673 34.1959 34.5935L35.1831 33.6064C36.2568 32.5327 36.2568 30.7662 35.1831 29.6925L31.8926 26.402C32.2909 25.6747 32.6027 24.9127 32.8451 24.0987H37.5037C39.0277 24.0987 40.2746 22.8518 40.2746 21.3278V19.9424C40.2746 18.4184 39.0277 17.1714 37.5037 17.1714V17.1714Z" stroke="#0066CC" stroke-width="3" stroke-linejoin="round"/>
<path d="M21.2246 27.5623C23.0619 27.5623 24.8238 26.8325 26.123 25.5334C27.4221 24.2342 28.1519 22.4723 28.1519 20.635C28.1519 18.7978 27.4221 17.0358 26.123 15.7367C24.8238 14.4376 23.0619 13.7078 21.2246 13.7078C19.3874 13.7078 17.6254 14.4376 16.3263 15.7367C15.0272 17.0358 14.2974 18.7978 14.2974 20.635C14.2974 22.4723 15.0272 24.2342 16.3263 25.5334C17.6254 26.8325 19.3874 27.5623 21.2246 27.5623Z" stroke="#0066CC" stroke-width="3" stroke-miterlimit="10"/>
</svg>
