<svg width="42" height="43" viewBox="0 0 42 43" fill="none" xmlns="http://www.w3.org/2000/svg">
<path d="M26.6873 41.3004V30.3752C26.6873 29.1684 25.709 28.1902 24.5022 28.1902H17.9471C16.7403 28.1902 15.7621 29.1684 15.7621 30.3752V41.3004" stroke="#0066CC" stroke-width="3" stroke-linecap="round" stroke-linejoin="round"/>
<path d="M5.92935 19.4501V32.5603C5.92935 36.6804 5.92935 38.7405 7.20933 40.0205C8.48928 41.3005 10.5494 41.3005 14.6695 41.3005H27.7798C31.8999 41.3005 33.9599 41.3005 35.2399 40.0205C36.5199 38.7405 36.5199 36.6804 36.5199 32.5603V19.4501" stroke="#0066CC" stroke-width="3"/>
<path d="M5.10182 5.27991C5.49926 3.69016 5.69797 2.89529 6.29068 2.4325C6.88342 1.96973 7.70274 1.96973 9.34141 1.96973H33.1078C34.7466 1.96973 35.5659 1.96973 36.1585 2.4325C36.7513 2.89529 36.9499 3.69016 37.3474 5.27991L39.9773 15.7997C40.1891 16.6461 40.2948 17.0693 40.2714 17.4132C40.2109 18.3044 39.6139 19.0692 38.7637 19.3441C38.436 19.4501 37.9896 19.4501 37.097 19.4501C35.9319 19.4501 35.3496 19.4501 34.8604 19.336C33.4899 19.0168 32.357 18.0571 31.8166 16.7577C31.6239 16.2939 31.5302 15.7323 31.3431 14.6092C31.2907 14.295 31.2645 14.1379 31.2348 14.0966C31.1476 13.9752 30.9671 13.9752 30.8799 14.0966C30.8502 14.1379 30.824 14.295 30.7715 14.6092L30.5934 15.6783C30.5747 15.7916 30.565 15.8483 30.5556 15.8979C30.17 17.9216 28.4235 19.4013 26.3639 19.449C26.3134 19.4501 26.2559 19.4501 26.141 19.4501C26.0261 19.4501 25.9686 19.4501 25.9181 19.449C23.8585 19.4013 22.112 17.9216 21.7263 15.8979C21.7169 15.8483 21.7073 15.7916 21.6885 15.6783L21.5105 14.6092C21.458 14.295 21.4318 14.1379 21.4021 14.0966C21.3149 13.9752 21.1344 13.9752 21.0472 14.0966C21.0175 14.1379 20.9913 14.295 20.9388 14.6092L20.7608 15.6783C20.742 15.7916 20.7324 15.8483 20.723 15.8979C20.3373 17.9216 18.5908 19.4013 16.5312 19.449C16.4806 19.4501 16.4232 19.4501 16.3083 19.4501C16.1934 19.4501 16.136 19.4501 16.0855 19.449C14.0258 19.4013 12.2792 17.9216 11.8936 15.8979C11.8842 15.8483 11.8747 15.7916 11.8558 15.6783L11.6777 14.6092C11.6253 14.295 11.5991 14.1379 11.5694 14.0966C11.4823 13.9752 11.3017 13.9752 11.2145 14.0966C11.1848 14.1379 11.1586 14.295 11.1062 14.6092C10.9191 15.7323 10.8255 16.2939 10.6326 16.7577C10.0924 18.0571 8.95947 19.0168 7.58892 19.336C7.09974 19.4501 6.51725 19.4501 5.35232 19.4501C4.45964 19.4501 4.01328 19.4501 3.68546 19.3441C2.83541 19.0692 2.23835 18.3044 2.1778 17.4132C2.15447 17.0693 2.26027 16.6461 2.47186 15.7997L5.10182 5.27991Z" stroke="#0066CC" stroke-width="3"/>
</svg>
